<svg xmlns="http://www.w3.org/2000/svg" xmlns:svgjs="http://svgjs.com/svgjs" xmlns:xlink="http://www.w3.org/1999/xlink" width="288" height="288"><svg xmlns="http://www.w3.org/2000/svg" width="288" height="288" fill="none" viewBox="0 0 64 64"><path fill="#4c5958" d="M53.814 14H10.176C7.873 14 6 15.863 6 18.154v16.341c0 2.291 1.873 4.154 4.176 4.154h43.648c2.303 0 4.176-1.863 4.176-4.154V18.154A4.185 4.185 0 0053.814 14zm1.29 20.495c0 .703-.573 1.273-1.28 1.273H10.176c-.707 0-1.28-.57-1.28-1.273V18.154c0-.703.573-1.273 1.28-1.273h43.648c.707 0 1.28.57 1.28 1.273v16.341z" class="colorF60 svgShape"/><path fill="#4c5958" d="M50.958 30.27H13.03c-.798 0-1.443.641-1.443 1.436 0 .794.645 1.435 1.443 1.435h37.938c.798 0 1.443-.641 1.443-1.435 0-.795-.655-1.436-1.453-1.436zm.134-10.915c-.798 0-1.443.642-1.443 1.436v.479c0 .794.645 1.435 1.443 1.435.799 0 1.444-.641 1.444-1.435v-.479c0-.794-.645-1.436-1.444-1.436zm0 5.437c-.798 0-1.443.642-1.443 1.436v.478c0 .795.645 1.436 1.443 1.436.799 0 1.444-.641 1.444-1.436v-.478c0-.784-.645-1.436-1.444-1.436zM16.738 40.849a1.44 1.44 0 00-1.75 1.048l-1.075 4.256a1.427 1.427 0 001.054 1.741 1.457 1.457 0 001.75-1.049l1.075-4.255a1.436 1.436 0 00-1.054-1.742zm10.172 1.659a1.429 1.429 0 00-1.556 1.313l-.358 4.379c-.061.794.522 1.506 1.32 1.547.83.05 1.494-.56 1.556-1.313l.358-4.378c.072-.784-.522-1.477-1.32-1.548zm23.17 3.645l-1.074-4.256a1.453 1.453 0 00-1.75-1.048 1.436 1.436 0 00-1.054 1.74l1.074 4.256c.164.652.87 1.253 1.75 1.049a1.432 1.432 0 001.054-1.741zM38.995 48.2l-.359-4.379a1.442 1.442 0 00-1.555-1.313 1.426 1.426 0 00-1.32 1.548l.358 4.378c.061.753.736 1.364 1.555 1.313.798-.05 1.382-.753 1.32-1.547z" class="colorF60 svgShape"/></svg></svg>