<svg xmlns="http://www.w3.org/2000/svg" xmlns:svgjs="http://svgjs.com/svgjs" xmlns:xlink="http://www.w3.org/1999/xlink" width="288" height="288"><svg xmlns="http://www.w3.org/2000/svg" width="288" height="288" fill="none" viewBox="0 0 64 64"><path fill="#4c5958" d="M33.295 57.59h-2.59c-.355 0-.66-.127-.914-.381a1.247 1.247 0 01-.38-.914c0-.355.126-.66.38-.914s.559-.381.914-.381h2.59c.355 0 .66.127.914.38.254.255.38.56.38.915s-.126.66-.38.914-.559.38-.914.38zM32 5.59c-2.15 0-4.172.415-6.068 1.244a15.725 15.725 0 00-4.977 3.351c-1.405 1.405-2.514 3.056-3.326 4.952-.813 1.896-1.219 3.918-1.219 6.068 0 1.371.136 2.666.406 3.885.271 1.202.576 2.26.915 3.174.338.914.651 1.642.939 2.183.288.542.448.838.482.889.339.576.72 1.303 1.143 2.184.423.88.753 1.633.99 2.26l2.082 5.535c.152.423.373.82.66 1.193.305.372.644.702 1.016.99a3.62 3.62 0 00-.635 1.117 4.07 4.07 0 00-.203 1.295c0 .491.085.965.254 1.422.186.44.432.83.736 1.168-.304.339-.55.736-.736 1.193-.17.44-.254.906-.254 1.397 0 1.083.38 2.006 1.143 2.767.761.762 1.675 1.143 2.742 1.143h7.82c1.067 0 1.98-.38 2.742-1.143.762-.761 1.143-1.684 1.143-2.767 0-.491-.093-.957-.28-1.397a3.664 3.664 0 00-.71-1.193c.304-.339.541-.728.71-1.168a3.72 3.72 0 00.28-1.422c0-.457-.076-.888-.229-1.295a3.253 3.253 0 00-.609-1.117 5.49 5.49 0 00.99-.99 4.05 4.05 0 00.686-1.194l2.082-5.535c.22-.626.541-1.38.965-2.26a37.4 37.4 0 011.168-2.183c.034-.05.194-.347.482-.889.288-.541.601-1.27.94-2.183a25.18 25.18 0 00.914-3.174 17.93 17.93 0 00.406-3.885c0-2.15-.406-4.172-1.219-6.068a15.426 15.426 0 00-3.352-4.952 15.426 15.426 0 00-4.95-3.351C36.171 6.004 34.148 5.59 32 5.59zm3.91 46.82h-7.82c-.356 0-.66-.127-.914-.38a1.277 1.277 0 01-.381-.94c0-.356.127-.66.38-.914.255-.254.56-.381.915-.381h7.82c.356 0 .66.127.914.38.254.255.381.56.381.915 0 .372-.127.685-.38.94-.255.253-.56.38-.915.38zm1.295-6.5c0 .356-.127.66-.38.914-.255.254-.56.381-.915.381h-7.82c-.356 0-.66-.127-.914-.38a1.247 1.247 0 01-.381-.915c0-.372.127-.685.38-.94.255-.253.56-.38.915-.38h7.82c.356 0 .66.127.914.38.254.255.381.568.381.94zm5.408-15.92a41.002 41.002 0 00-1.27 2.412 26.006 26.006 0 00-1.066 2.489l-2.082 5.51c-.152.423-.465.795-.94 1.117-.456.321-.905.482-1.345.482h-7.82c-.44 0-.897-.16-1.371-.482-.457-.322-.762-.694-.914-1.118l-2.082-5.51c-.254-.71-.618-1.54-1.092-2.488a33.792 33.792 0 00-1.244-2.412c-.017 0-.153-.237-.407-.71a22.054 22.054 0 01-.812-1.905 25.98 25.98 0 01-.813-2.793A15.53 15.53 0 0119 21.205c0-1.794.338-3.478 1.016-5.053.694-1.59 1.625-2.97 2.793-4.138a13.129 13.129 0 014.138-2.793c1.575-.677 3.259-1.016 5.053-1.016s3.478.339 5.053 1.016a12.83 12.83 0 014.113 2.793 12.757 12.757 0 012.793 4.138C44.653 17.727 45 19.411 45 21.205c0 1.185-.127 2.31-.38 3.377a20.265 20.265 0 01-.813 2.793c-.288.796-.559 1.43-.813 1.904-.237.474-.364.711-.38.711z" class="colorF60 svgShape"/></svg></svg>