<svg xmlns="http://www.w3.org/2000/svg" xmlns:svgjs="http://svgjs.com/svgjs" xmlns:xlink="http://www.w3.org/1999/xlink" width="288" height="288"><svg xmlns="http://www.w3.org/2000/svg" width="288" height="288" fill="none" viewBox="0 0 64 64"><g fill="#4c5958" class="color000 svgShape" clip-path="url(#a)"><path d="M57.467 32.502l-.026-.05v-.026l-1.015-5.18H56.4l-.507-2.64c-.203-1.016-.728-1.871-1.575-2.565C53.472 21.347 52.533 21 51.5 21H41.09c-.22 0-.44.025-.66.076-.22.034-.432.085-.635.152v-1.523c0-1.083-.38-2.006-1.143-2.767-.761-.762-1.675-1.143-2.742-1.143h-26c-1.083 0-2.006.38-2.767 1.143C6.38 17.698 6 18.622 6 19.704V40.5c0 1.083.38 2.006 1.143 2.768.761.761 1.684 1.142 2.767 1.142h3.885c0 .711.135 1.388.406 2.031a4.966 4.966 0 001.117 1.625 5.265 5.265 0 001.65 1.118c.644.27 1.321.406 2.032.406a5 5 0 002.006-.406 5.19 5.19 0 001.676-1.118 4.971 4.971 0 001.117-1.625 5.18 5.18 0 00.406-2.03h13.229a3.8 3.8 0 001.37 1.853A3.81 3.81 0 0041.09 47h2.006a5.26 5.26 0 001.879 1.879c.795.474 1.667.71 2.615.71.965 0 1.845-.236 2.64-.71A5.261 5.261 0 0052.11 47h1.98c1.083 0 2.006-.38 2.767-1.143C57.62 45.096 58 44.173 58 43.09v-5.18c0-.762-.05-1.667-.152-2.717-.102-1.066-.229-1.963-.381-2.691zm-2.87-1.092H47.59v-2.615h6.474l.534 2.615zM19 47c-.71 0-1.32-.254-1.828-.762a2.493 2.493 0 01-.762-1.828c0-.728.254-1.345.762-1.853A2.493 2.493 0 0119 41.795c.71 0 1.32.254 1.828.762s.762 1.125.762 1.853c0 .711-.254 1.32-.762 1.828A2.493 2.493 0 0119 47zm4.494-5.205a5.06 5.06 0 00-1.853-1.879 5.063 5.063 0 00-2.641-.71c-.965 0-1.845.236-2.64.71a5.06 5.06 0 00-1.854 1.879H9.91c-.372 0-.685-.127-.94-.38a1.247 1.247 0 01-.38-.915V19.705c0-.355.127-.66.38-.914.255-.254.568-.38.94-.38h26c.356 0 .66.126.914.38s.381.559.381.914v22.09h-13.71zM47.59 47c-.711 0-1.32-.254-1.828-.762A2.493 2.493 0 0145 44.41c0-.728.254-1.345.762-1.853a2.493 2.493 0 011.828-.762c.728 0 1.345.254 1.853.762s.762 1.125.762 1.853c0 .711-.254 1.32-.762 1.828A2.523 2.523 0 0147.59 47zm6.5-2.59h-1.295c0-.728-.136-1.405-.406-2.031a5.27 5.27 0 00-2.768-2.768 5.063 5.063 0 00-2.031-.406c-.711 0-1.388.136-2.031.406a5.27 5.27 0 00-1.65 1.117 5.498 5.498 0 00-1.093 1.65 5.063 5.063 0 00-.406 2.032h-1.32c-.356 0-.66-.127-.914-.38a1.277 1.277 0 01-.381-.94V24.91c0-.372.127-.685.38-.94.255-.253.56-.38.915-.38H51.5c.406 0 .796.152 1.168.457.372.305.592.66.66 1.066l.229 1.092h-7.262c-.355 0-.66.127-.914.38-.254.255-.381.56-.381.915v5.205c0 .355.127.66.38.914.255.254.56.381.915.381h8.785c.068.406.119.838.152 1.295.051.44.093.872.127 1.295h-1.27c-.355 0-.66.127-.913.38a1.28 1.28 0 00-.381.94c0 .356.127.66.38.914.255.254.56.381.915.381h1.32v3.885c0 .372-.127.685-.38.94-.255.253-.568.38-.94.38z" class="colorF60 svgShape"/></g><defs><clipPath id="a"><path fill="#4c5958" d="M0 0h64v64H0z" class="colorfff svgShape"/></clipPath></defs></svg></svg>