<svg xmlns="http://www.w3.org/2000/svg" xmlns:svgjs="http://svgjs.com/svgjs" xmlns:xlink="http://www.w3.org/1999/xlink" width="288" height="288"><svg xmlns="http://www.w3.org/2000/svg" width="288" height="288" fill="none" viewBox="0 0 64 64"><path fill="#4c5958" fill-rule="evenodd" stroke="#4c5958" stroke-width=".8" d="M58 28.125a3.925 3.925 0 00-3.925-3.925H40.667a.867.867 0 01-.867-.867v-1.892a2.584 2.584 0 000-4.881V9.925A3.925 3.925 0 0035.876 6h-7.751A3.925 3.925 0 0024.2 9.925v6.632c-.362.123-.69.329-.96.6A2.543 2.543 0 0022.468 19a2.6 2.6 0 001.733 2.44v1.893a.867.867 0 01-.867.867H9.925A3.925 3.925 0 006 28.125v7.75A3.925 3.925 0 009.925 39.8H30.63l2.994-2.997a.245.245 0 01.416.214l-.464 2.783h20.498A3.925 3.925 0 0058 35.876v-7.751zm-28.086 9.942H9.696a1.962 1.962 0 01-1.963-1.963v-8.208c0-1.084.879-1.963 1.963-1.963h13.637a2.6 2.6 0 002.6-2.6V21.6h12.134v1.733a2.6 2.6 0 002.6 2.6h13.637c1.084 0 1.963.879 1.963 1.963v8.208a1.962 1.962 0 01-1.963 1.963h-18.68l.639-3.839c.157-.942-.987-1.53-1.662-.854l-4.687 4.693zm-3.98-28.371c0-1.084.878-1.963 1.962-1.963h8.208c1.084 0 1.963.879 1.963 1.963V16.4H25.933V9.696zm-1.468 8.687a.825.825 0 01.6-.25h13.867a.867.867 0 010 1.734H25.067A.867.867 0 0124.2 19c0-.234.096-.457.266-.617z" class="colorF60 svgShape colorStrokeF60 svgStroke" clip-rule="evenodd"/><path fill="#4c5958" stroke="#4c5958" stroke-width=".8" d="M32.713 43.641a.867.867 0 00-1.427 0v0c-.459.666-4.486 6.57-4.486 9.159a5.2 5.2 0 1010.4 0c0-2.589-4.028-8.493-4.487-9.159v0zM32 56.267a3.467 3.467 0 01-3.467-3.467c0-1.332 1.907-4.703 3.467-7.107 1.56 2.404 3.467 5.776 3.467 7.107A3.467 3.467 0 0132 56.267z" class="colorF60 svgShape colorStrokeF60 svgStroke"/></svg></svg>