<svg xmlns="http://www.w3.org/2000/svg" xmlns:svgjs="http://svgjs.com/svgjs" xmlns:xlink="http://www.w3.org/1999/xlink" width="288" height="288"><svg xmlns="http://www.w3.org/2000/svg" width="288" height="288" fill="none" viewBox="0 0 64 64"><path fill="#4c5958" fill-rule="evenodd" d="M17.957 6.93l5.822 6.246a4.684 4.684 0 015.521.96l.007.008 4.483 4.819c.163.174.272.39.317.62a3.834 3.834 0 013.673 1.086l.002.002L48.4 31.727l.025.026a6.398 6.398 0 011.186 6.712l-.002.007-6.13 14.802c-.078.22-.168.431-.26.63l-.003.007a7.135 7.135 0 01-9.5 3.403 7.135 7.135 0 01-3.418-9.467l2.673-6.532-7.338-7.564a5.17 5.17 0 01-.725-6.065 1.272 1.272 0 01-.309-.246l-4.447-4.81a4.682 4.682 0 01-.573-5.576l-5.83-6.254-.017-.02a2.863 2.863 0 01.23-4.053 2.833 2.833 0 013.995.204zm15.966 15.59l-6.29 5.782v.001a2.616 2.616 0 00-.158 3.685l7.907 8.15c.353.364.457.902.265 1.371l-3.002 7.333a.683.683 0 01-.027.062 4.585 4.585 0 108.492 3.426l6.14-14.827.001-.003a3.848 3.848 0 00-.704-4.021L35.94 22.433l-.005-.005a1.284 1.284 0 00-1.795-.067c-.068.061-.14.114-.216.158zM15.647 8.641a.859.859 0 00.027-.025.282.282 0 01.395.028l.016.017 6.574 7.053a1.277 1.277 0 001.797.068 2.131 2.131 0 012.988.101l3.607 3.877-5.443 5.014-3.58-3.873a2.132 2.132 0 01.104-2.992c.51-.482.535-1.284.057-1.796l-6.562-7.04a.313.313 0 01.02-.432z" class="colorF60 svgShape" clip-rule="evenodd"/></svg></svg>