<svg xmlns="http://www.w3.org/2000/svg" xmlns:svgjs="http://svgjs.com/svgjs" xmlns:xlink="http://www.w3.org/1999/xlink" width="288" height="288"><svg xmlns="http://www.w3.org/2000/svg" width="288" height="288" fill="none" viewBox="0 0 64 64"><path stroke="#4c5958" stroke-linecap="round" stroke-linejoin="round" stroke-width="2.5" d="M10.82 8h42.36C54.738 8 56 9.093 56 10.443V52.18c0 1.35-1.262 2.443-2.82 2.443H10.82C9.262 54.623 8 53.529 8 52.18V10.443C8 9.093 9.262 8 10.82 8zm21.183.127v40.125" class="colorStrokeF60 svgStroke"/><path stroke="#4c5958" stroke-linecap="round" stroke-linejoin="round" stroke-width="2.5" d="M12.097 54.622h4.78c.432 0 .782.303.782.676v.025c0 .374-.35.676-.781.676h-4.78c-.432 0-.782-.302-.782-.676v-.025c.004-.373.353-.676.781-.676zm12.116-21.638v-3.345c0-.404.378-.732.845-.732h.121c.467 0 .845.328.845.732v3.345c0 .404-.378.731-.845.731h-.121c-.467 0-.845-.327-.845-.731zm13.769 0v-3.345c0-.404.378-.732.845-.732h.122c.467 0 .845.328.845.732v3.345c0 .404-.378.731-.845.731h-.122c-.467 0-.845-.327-.845-.731zm9.145 21.638h4.781c.432 0 .78.303.78.676v.025c0 .374-.348.676-.78.676h-4.78c-.432 0-.781-.302-.781-.676v-.025c0-.373.35-.676.78-.676z" class="colorStrokeF60 svgStroke"/></svg></svg>