<svg xmlns="http://www.w3.org/2000/svg" xmlns:svgjs="http://svgjs.com/svgjs" xmlns:xlink="http://www.w3.org/1999/xlink" width="288" height="288"><svg xmlns="http://www.w3.org/2000/svg" width="288" height="288" fill="none" viewBox="0 0 64 64"><path fill="#4c5958" d="M54.47 45.732L42.564 33.824a8.147 8.147 0 00-2.311-1.6c-.897-.423-1.701-.634-2.412-.634-.153 0-.288-.017-.406-.05a.994.994 0 01-.229-.102v-1.143c0-.356-.127-.66-.38-.914A1.247 1.247 0 0035.91 29c-.186 0-.364.034-.533.102-.152.067-.288.16-.406.279l-1.676 1.676L15.648 13.41l.381-.38c.254-.255.381-.56.381-.915 0-.372-.127-.685-.38-.94l-5.206-5.204a1.276 1.276 0 00-.94-.381c-.355 0-.66.127-.913.38L6.38 8.587C6.127 8.84 6 9.145 6 9.5s.127.66.38.914l5.206 5.205c.118.136.254.237.406.305.17.05.339.076.508.076.17 0 .33-.025.482-.076.17-.068.314-.17.432-.305l.38-.38L31.468 32.91l-1.676 1.676a1.338 1.338 0 00-.28.406 1.237 1.237 0 00-.1.508c0 .355.126.66.38.914s.559.38.914.38h1.143a.992.992 0 01.101.255c.034.101.051.237.051.406 0 .711.212 1.515.635 2.412.423.897.948 1.659 1.574 2.285l11.934 11.934c.372.372.795.66 1.27.863.49.186.99.28 1.497.28.491 0 .974-.094 1.447-.28a3.93 3.93 0 001.295-.863l2.819-2.818c.761-.762 1.142-1.685 1.142-2.768 0-1.083-.38-2.006-1.142-2.768zM9.149 9.5l.762-.762 3.352 3.352-.762.762L9.148 9.5zM34.59 37.455a3.93 3.93 0 00-.33-1.625c-.22-.49-.517-.88-.889-1.168l1.701-1.701a3.26 3.26 0 001.143.914c.49.22 1.032.33 1.625.33.338 0 .795.144 1.37.432a5.08 5.08 0 011.499 1.015l7.643 7.643-4.647 4.672-7.642-7.643a5.478 5.478 0 01-1.041-1.498c-.288-.592-.432-1.05-.432-1.37zm18.053 11.96l-2.819 2.817a1.277 1.277 0 01-.94.381c-.355 0-.66-.127-.913-.38l-2.438-2.438 4.672-4.647 2.438 2.438c.254.254.38.559.38.914s-.127.66-.38.914z" class="colorF60 svgShape"/></svg></svg>