<svg xmlns="http://www.w3.org/2000/svg" xmlns:svgjs="http://svgjs.com/svgjs" xmlns:xlink="http://www.w3.org/1999/xlink" width="288" height="288"><svg xmlns="http://www.w3.org/2000/svg" width="288" height="288" fill="none" viewBox="0 0 64 64"><path fill="#4c5958" d="M51.5 16h-1.295v-1.295c0-1.083-.38-2.006-1.142-2.768-.762-.761-1.685-1.142-2.768-1.142H9.91c-1.083 0-2.006.38-2.767 1.143C6.38 12.698 6 13.621 6 14.704v5.205c0 1.067.38 1.98 1.143 2.742.761.762 1.684 1.143 2.767 1.143h36.385c1.083 0 2.006-.38 2.767-1.143.762-.761 1.143-1.675 1.143-2.742v-1.32H51.5c.355 0 .66.127.914.38.254.255.38.568.38.94v5.18c0 .372-.126.685-.38.94a1.25 1.25 0 01-.914.38H30.705c-1.083 0-2.006.381-2.767 1.143-.762.761-1.143 1.675-1.143 2.742v4.139c-.745.254-1.363.719-1.854 1.396a3.688 3.688 0 00-.736 2.26v13c0 1.083.38 2.006 1.143 2.767.761.762 1.675 1.143 2.742 1.143 1.083 0 2.006-.38 2.767-1.143.763-.76 1.143-1.683 1.143-2.766v-13c0-.847-.245-1.6-.736-2.26-.491-.677-1.11-1.142-1.854-1.396v-4.14c0-.355.127-.66.381-.913.254-.254.559-.381.914-.381H51.5c1.083 0 2.006-.38 2.768-1.143.761-.761 1.142-1.684 1.142-2.767v-5.18c0-1.083-.38-2.006-1.142-2.767C53.506 16.38 52.583 16 51.5 16zm-3.91 3.91c0 .356-.127.66-.381.914s-.559.381-.914.381H9.91c-.372 0-.685-.127-.94-.38a1.247 1.247 0 01-.38-.915v-5.205c0-.355.127-.66.38-.914.255-.254.568-.38.94-.38h36.385c.355 0 .66.126.914.38s.38.559.38.914v5.205zM29.41 51.09c0 .372-.127.685-.38.94-.255.253-.568.38-.94.38-.356 0-.66-.127-.914-.38a1.277 1.277 0 01-.381-.94v-13c0-.356.127-.66.38-.914.255-.254.56-.381.915-.381.372 0 .685.127.94.38.253.255.38.56.38.915v13z" class="colorF60 svgShape"/></svg></svg>