<svg xmlns="http://www.w3.org/2000/svg" xmlns:svgjs="http://svgjs.com/svgjs" xmlns:xlink="http://www.w3.org/1999/xlink" width="288" height="288"><svg xmlns="http://www.w3.org/2000/svg" width="288" height="288" fill="none" viewBox="0 0 64 64"><path fill="#4c5958" fill-rule="evenodd" d="M25.371 14.522a2.296 2.296 0 012.283-2.022c1.174 0 2.297 1.08 2.297 2.453 0 .647.293 1.258.807 1.662.501.394 1.159.55 1.796.399h.002a3.614 3.614 0 014.427 3.859H26.85a1.53 1.53 0 00-.094.002H8.463a2.814 2.814 0 011.466-.674c1.003-.14 1.877-1.023 1.84-2.162l-.003-.102c.01-1.63 1.746-2.924 3.615-1.93.062.035.173.125.412.425a2.108 2.108 0 001.58.784 2.114 2.114 0 001.616-.656c.38-.403.562-.568.737-.653.849-.4 1.716-.307 2.371.128a2.127 2.127 0 002.041.17l.019-.009a2.108 2.108 0 001.214-1.674zM18.99 16.56h.001l-1.095-1.026 1.093 1.027h.001zm11.25 7.315l.093-.003h3.334l-.005.029c-1.082 5.711-5.913 9.793-11.411 9.793-5.499 0-10.33-4.08-11.41-9.795l-.005-.024h19.403zm-25.554-.78a1.5 1.5 0 01-.124-1.143l.17-.581.001-.002a5.833 5.833 0 014.065-3.992c.383-3.546 4.274-6 7.997-4.015l.003.001c.26.14.485.307.678.48.268-.233.587-.465.959-.643l.006-.003c1.385-.655 2.898-.71 4.233-.213a5.301 5.301 0 014.98-3.484c2.594 0 4.732 1.973 5.201 4.437.176-.014.353-.021.529-.021 4.092 0 7.331 3.73 6.48 7.956v.002a6.532 6.532 0 01-.15.573l-.01.035a1.916 1.916 0 01-.011.034l-.093.284.027.03a1.5 1.5 0 01.36 1.182l-2.15 16.633a1.5 1.5 0 01-1.393 1.304l-.353.023h-.008c-1.307.078-2.414 1.22-2.414 2.713v8.382a1.5 1.5 0 01-1.5 1.5H12.124c-2.135 0-3.873-1.645-4.144-3.723L4.512 24.009a1.5 1.5 0 01.173-.913zm6.27 27.362l-3.249-25.14h.373c1.641 6.61 7.44 11.377 14.171 11.377 6.732 0 12.527-4.77 14.17-11.375h.373l-1.782 13.786c-2.536.578-4.342 2.908-4.342 5.58v6.882H12.123c-.534 0-1.08-.434-1.168-1.11zM39.5 46.085c0-.783.736-1.585 1.854-1.585h13.792c1.119 0 1.854.8 1.854 1.585v.417H39.5v-.417zm1.854-3.585c-2.032 0-3.854 1.516-3.854 3.585v1.417c0 .19.053.367.145.518a.995.995 0 00-.142.513v3.108c0 1.482 1.242 2.609 2.682 2.609h16.097c1.44 0 2.68-1.127 2.684-2.606v-3.111a.995.995 0 00-.127-.487.995.995 0 00.161-.544v-1.417c0-2.072-1.822-3.585-3.854-3.585H41.354zm10.484 9.75h-.894v-2.717h.894v2.717zm-2.894 0v-2.717h-1.143v2.717h1.143zm4.894 0v-2.717h3.128v2.106c-.002.299-.267.611-.684.611h-2.444zm-11.18-2.717h-3.155v2.108c0 .296.264.609.682.609h2.472v-2.717zm2 2.717H45.8v-2.717h-1.144v2.717z" class="colorF60 svgShape" clip-rule="evenodd"/><path fill="#4c5958" fill-rule="evenodd" d="M7.522 24.064a1.1 1.1 0 011.207.98l.043.41a1.1 1.1 0 01-2.189.226l-.042-.409a1.1 1.1 0 01.981-1.207z" class="colorF60 svgShape" clip-rule="evenodd"/></svg></svg>