<svg xmlns="http://www.w3.org/2000/svg" xmlns:svgjs="http://svgjs.com/svgjs" xmlns:xlink="http://www.w3.org/1999/xlink" width="288" height="288"><svg xmlns="http://www.w3.org/2000/svg" width="288" height="288" fill="none" viewBox="0 0 64 64"><path fill="#4c5958" fill-rule="evenodd" d="M48.248 16.021L42.951 34.59c-.157.55-.845.746-1.238.353l-5.716-5.716 3.28-3.28a1.3 1.3 0 10-1.84-1.838l-3.278 3.28-5.716-5.716c-.393-.393-.197-1.08.353-1.238l18.568-5.297a.71.71 0 01.884.884zM32.038 29.51l-5.716-5.716c-1.966-1.966-.985-5.404 1.766-6.189l18.567-5.297a3.546 3.546 0 014.423 4.423l-5.297 18.567c-.785 2.75-4.224 3.732-6.19 1.766l-5.715-5.716-5.745 5.746a1.3 1.3 0 01-1.839 0l-.804-.805-1.19 1.19a1.3 1.3 0 01-.34.245c.876 1.444.881 3.12-.105 4.107l-7.072 7.071c-1.22 1.22-3.495.924-5.082-.663-1.586-1.586-1.883-3.862-.663-5.082l7.071-7.071c.987-.987 2.663-.982 4.108-.105.06-.123.142-.238.244-.34l2.11-2.11a1.3 1.3 0 011.838 0l.804.805 4.826-4.826zM14.942 47.063l7.071-7.071c.44-.44.332-1.259-.239-1.83-.57-.571-1.39-.678-1.83-.239l-7.07 7.072c-.44.439-.333 1.258.238 1.83.571.57 1.39.677 1.83.238z" class="colorF60 svgShape" clip-rule="evenodd"/></svg></svg>